<svg id="visual" viewBox="0 0 960 540" width="960" height="540" xmlns="http://www.w3.org/2000/svg"
  xmlns:xlink="http://www.w3.org/1999/xlink" version="1.1">
  <path
    d="M199 540L175.2 517.5C151.3 495 103.7 450 149.8 405C196 360 336 315 393.8 270C451.7 225 427.3 180 473 135C518.7 90 634.3 45 692.2 22.5L750 0L960 0L960 22.5C960 45 960 90 960 135C960 180 960 225 960 270C960 315 960 360 960 405C960 450 960 495 960 517.5L960 540Z"
    fill="#38bdf8" stroke-linecap="round" stroke-linejoin="miter"></path>
</svg>